<svg id="Layer_1" enable-background="new 0 0 64 64" height="512" viewBox="0 0 64 64" width="512" xmlns="http://www.w3.org/2000/svg"><g><g><path d="m4.016 32 21 18h10v-9h21v-18h-21v-9h-10z" fill="#db8e11"/><path d="m35.016 50.5h-10c-.119 0-.235-.042-.325-.121l-21-18c-.111-.094-.175-.233-.175-.379s.064-.285.175-.379l21-18c.09-.078.206-.121.325-.121h10c.276 0 .5.224.5.5v8.5h20.5c.276 0 .5.224.5.5v18c0 .276-.224.5-.5.5h-20.5v8.5c0 .276-.224.5-.5.5zm-9.815-1h9.315v-8.5c0-.276.224-.5.5-.5h20.5v-17h-20.5c-.276 0-.5-.224-.5-.5v-8.5h-9.315l-20.417 17.5z" fill="#212a41"/></g><g><g><path d="m25.772 48.5c-.115 0-.23-.04-.325-.12l-18.733-16c-.111-.095-.175-.234-.175-.38s.064-.285.175-.38l18.717-16c.209-.179.526-.155.705.055.18.21.155.525-.055.705l-18.273 15.62 18.289 15.62c.21.18.235.495.056.705-.1.115-.24.175-.381.175z" fill="#f9ac2f"/></g></g><g><path d="m14.016 32 21 18v-9h25v-18h-25v-9z" fill="#f9ac2f"/><path d="m35.016 50.5c-.117 0-.233-.041-.325-.121l-21-18c-.111-.095-.175-.233-.175-.379s.064-.285.175-.379l21-18c.148-.127.357-.157.534-.075s.291.259.291.454v8.5h24.5c.276 0 .5.224.5.5v18c0 .276-.224.5-.5.5h-24.5v8.5c0 .195-.114.373-.291.454-.067.031-.139.046-.209.046zm-20.232-18.5 19.732 16.913v-7.913c0-.276.224-.5.5-.5h24.5v-17h-24.5c-.276 0-.5-.224-.5-.5v-7.913z" fill="#212a41"/></g><g><g><path d="m33.016 46.151c-.115 0-.23-.04-.325-.12l-15.977-13.651c-.111-.095-.175-.234-.175-.38s.064-.285.175-.38l15.977-13.651c.209-.178.525-.154.705.056.179.21.154.525-.056.705l-15.532 13.27 15.532 13.271c.21.18.235.495.056.705-.099.116-.239.175-.38.175z" fill="#ffca4d"/></g></g><g><path d="m58.016 39.5c-.276 0-.5-.224-.5-.5v-14c0-.276.224-.5.5-.5s.5.224.5.5v14c0 .276-.224.5-.5.5z" fill="#db8e11"/></g></g></svg>